<?xml version="1.0" encoding="UTF-8" standalone="no"?>
<svg
   width="81.279999mm"
   height="128.5mm"
   viewBox="0 0 307.19999 485.66929"
   version="1.1"
   xml:space="preserve"
   style="clip-rule:evenodd;fill-rule:evenodd;stroke-linecap:round;stroke-linejoin:round;stroke-miterlimit:1.5"
   id="svg159"
   sodipodi:docname="Pentagram.svg"
   inkscape:version="1.2.2 (b0a84865, 2022-12-01)"
   xmlns:inkscape="http://www.inkscape.org/namespaces/inkscape"
   xmlns:sodipodi="http://sodipodi.sourceforge.net/DTD/sodipodi-0.dtd"
   xmlns="http://www.w3.org/2000/svg"
   xmlns:svg="http://www.w3.org/2000/svg"><defs
   id="defs163">
        </defs><sodipodi:namedview
   id="namedview161"
   pagecolor="#ffffff"
   bordercolor="#000000"
   borderopacity="0.25"
   inkscape:showpageshadow="2"
   inkscape:pageopacity="0.0"
   inkscape:pagecheckerboard="0"
   inkscape:deskcolor="#d1d1d1"
   showgrid="false"
   inkscape:zoom="3.918429"
   inkscape:cx="137.93793"
   inkscape:cy="344.52583"
   inkscape:window-width="1512"
   inkscape:window-height="916"
   inkscape:window-x="0"
   inkscape:window-y="38"
   inkscape:window-maximized="0"
   inkscape:current-layer="layer1"
   inkscape:document-units="mm" />
    <rect
   id="Artboard1"
   x="0.00069208338"
   y="-3.5527137e-15"
   width="307.19931"
   height="485.66928"
   style="fill:#372929;stroke-width:0.319999"
   inkscape:label="background"
   sodipodi:insensitive="true" />
    <g
   id="g1350"
   inkscape:label="pentagram"
   transform="matrix(1.1445639,0,0,1.1445639,-22.204971,-46.470547)"><g
     id="g1680"
     inkscape:label="helpers"
     style="clip-rule:evenodd;display:none;fill-rule:evenodd;stroke-linecap:round;stroke-linejoin:round;stroke-miterlimit:1.5"
     transform="matrix(0.87369523,0,0,0.87369523,19.400377,30.671152)"><path
       style="fill:#c2c2c2"
       d="M 158.61958,262.01716 140.45715,237.01885"
       id="path1569" /><path
       style="fill:#c2c2c2"
       d="m 148.5797,262.01716 4.96331,-6.83137 13.19913,-18.16694"
       id="path1676"
       sodipodi:nodetypes="ccc" /></g><path
     d="M 153.59965,141.26016 260.40069,218.8555 219.60622,344.40786 H 87.592762 L 46.798614,218.8555 Z"
     style="clip-rule:evenodd;fill:none;fill-rule:evenodd;stroke:#ac3f3f;stroke-width:3.40159px;stroke-linecap:round;stroke-linejoin:round;stroke-miterlimit:1.5"
     id="path133"
     inkscape:label="pentagon" /><path
     d="M 87.593082,344.40882 260.40069,218.85582 H 46.798614 l 172.807606,125.553 -66.00657,-203.14866 z"
     style="clip-rule:evenodd;fill:none;fill-rule:evenodd;stroke:#ac3f3f;stroke-width:3.40159px;stroke-linecap:round;stroke-linejoin:round;stroke-miterlimit:1.5"
     id="path137"
     inkscape:label="star" /><path
     d="m 165.08219,237.75338 7.0963,21.84091 c 0,0 -18.57884,13.49821 -18.57884,13.49821 0,0 -18.57884,-13.49821 -18.57884,-13.49821 0,0 7.09631,-21.84091 7.09631,-21.84091 z"
     style="clip-rule:evenodd;fill:#ac3f3f;fill-rule:evenodd;stroke:#ac3f3f;stroke-width:3.40159px;stroke-linecap:round;stroke-linejoin:round;stroke-miterlimit:1.5"
     id="path139"
     inkscape:label="inner pentagon" /></g><g
   id="g6687"
   inkscape:label="clock"><text
     xml:space="preserve"
     style="clip-rule:evenodd;fill:#ffffff;fill-opacity:0.995708;fill-rule:evenodd;stroke:#ffffff;stroke-linecap:round;stroke-linejoin:round;stroke-miterlimit:1.5;stroke-opacity:1"
     x="42.3881"
     y="97.893166"
     id="text6490"
     inkscape:label="clock"><tspan
       sodipodi:role="line"
       id="tspan6488"
       x="42.3881"
       y="97.893166">CLOCK</tspan></text><circle
     cx="63.2006"
     cy="66.576218"
     r="12.712292"
     style="clip-rule:evenodd;fill:#ac3f3f;fill-rule:evenodd;stroke-width:0.319999;stroke-linecap:round;stroke-linejoin:round;stroke-miterlimit:1.5"
     id="circle147"
     inkscape:label="circle" /><g
     aria-label="CLOCK"
     id="text6711"
     style="fill:#ffffff;fill-opacity:0.995708;stroke:#ffffff"
     inkscape:label="clock"><path
       d="m 50.298256,97.260353 q -0.322266,0.140625 -0.585938,0.263672 -0.257812,0.123047 -0.679687,0.257812 -0.357422,0.111329 -0.779297,0.1875 -0.416016,0.08203 -0.919922,0.08203 -0.949219,0 -1.728515,-0.263672 -0.773438,-0.269531 -1.347657,-0.837891 -0.5625,-0.55664 -0.878906,-1.412109 -0.316406,-0.861328 -0.316406,-1.998047 0,-1.078125 0.304687,-1.927734 0.304688,-0.84961 0.878907,-1.435547 0.55664,-0.56836 1.341796,-0.867188 0.791016,-0.298828 1.751954,-0.298828 0.703125,0 1.40039,0.169922 0.703125,0.169922 1.558594,0.597656 v 1.376953 h -0.08789 q -0.720703,-0.603515 -1.429687,-0.878906 -0.708985,-0.275391 -1.517578,-0.275391 -0.66211,0 -1.195313,0.216797 -0.527344,0.210938 -0.943359,0.66211 -0.404297,0.439453 -0.632813,1.113281 -0.222656,0.667969 -0.222656,1.546875 0,0.919922 0.246094,1.582031 0.251953,0.66211 0.644531,1.078125 0.410156,0.433594 0.955078,0.644531 0.550781,0.205079 1.160156,0.205079 0.837891,0 1.570313,-0.28711 0.732422,-0.287109 1.371094,-0.861328 h 0.08203 z"
       id="path6713" /><path
       d="m 57.458412,97.893166 h -5.519531 v -8.72461 h 1.160156 v 7.69336 h 4.359375 z"
       id="path6715" /><path
       d="m 65.005287,90.170509 q 0.533203,0.585938 0.814453,1.435547 0.28711,0.84961 0.28711,1.927735 0,1.078125 -0.292969,1.933593 -0.287109,0.84961 -0.808594,1.417969 -0.539062,0.591797 -1.277344,0.890625 -0.732421,0.298828 -1.675781,0.298828 -0.919922,0 -1.675781,-0.304687 -0.75,-0.304688 -1.277344,-0.884766 -0.527344,-0.580078 -0.814453,-1.423828 -0.28125,-0.84375 -0.28125,-1.927734 0,-1.066407 0.28125,-1.910157 0.28125,-0.849609 0.820313,-1.453125 0.515625,-0.574218 1.277343,-0.878906 0.767578,-0.304687 1.669922,-0.304687 0.9375,0 1.681641,0.310546 0.75,0.304688 1.271484,0.873047 z m -0.105469,3.363282 q 0,-1.699219 -0.761718,-2.619141 -0.761719,-0.925781 -2.080078,-0.925781 -1.330079,0 -2.091797,0.925781 -0.75586,0.919922 -0.75586,2.619141 0,1.716796 0.773438,2.630859 0.773437,0.908203 2.074219,0.908203 1.300781,0 2.068359,-0.908203 0.773437,-0.914063 0.773437,-2.630859 z"
       id="path6717" /><path
       d="m 74.684975,97.260353 q -0.322266,0.140625 -0.585938,0.263672 -0.257812,0.123047 -0.679687,0.257812 -0.357422,0.111329 -0.779297,0.1875 -0.416016,0.08203 -0.919922,0.08203 -0.949219,0 -1.728516,-0.263672 -0.773437,-0.269531 -1.347656,-0.837891 -0.5625,-0.55664 -0.878906,-1.412109 -0.316406,-0.861328 -0.316406,-1.998047 0,-1.078125 0.304687,-1.927734 0.304688,-0.84961 0.878906,-1.435547 0.556641,-0.56836 1.341797,-0.867188 0.791016,-0.298828 1.751953,-0.298828 0.703125,0 1.400391,0.169922 0.703125,0.169922 1.558594,0.597656 v 1.376953 h -0.08789 q -0.720703,-0.603515 -1.429687,-0.878906 -0.708985,-0.275391 -1.517579,-0.275391 -0.662109,0 -1.195312,0.216797 -0.527344,0.210938 -0.943359,0.66211 -0.404297,0.439453 -0.632813,1.113281 -0.222656,0.667969 -0.222656,1.546875 0,0.919922 0.246094,1.582031 0.251953,0.66211 0.644531,1.078125 0.410156,0.433594 0.955078,0.644531 0.550781,0.205079 1.160156,0.205079 0.837891,0 1.570313,-0.28711 0.732422,-0.287109 1.371093,-0.861328 h 0.08203 z"
       id="path6719" /><path
       d="m 83.339272,97.893166 h -1.50586 L 78.38224,94.0084 77.515053,94.934181 v 2.958985 h -1.160156 v -8.72461 h 1.160156 v 4.552735 l 4.236328,-4.552735 h 1.40625 l -3.896484,4.101563 z"
       id="path6721" /></g></g><g
   id="g6692"
   inkscape:label="reset"><text
     xml:space="preserve"
     style="clip-rule:evenodd;fill:#ffffff;fill-opacity:0.995708;fill-rule:evenodd;stroke:#ffffff;stroke-linecap:round;stroke-linejoin:round;stroke-miterlimit:1.5;stroke-opacity:1"
     x="234.33331"
     y="95.528206"
     id="text6548"
     inkscape:label="reset"><tspan
       sodipodi:role="line"
       id="tspan6546"
       x="234.33331"
       y="95.528206">RESET</tspan></text><circle
     cx="254.47784"
     cy="63.949501"
     r="12.712292"
     style="clip-rule:evenodd;fill:#ac3f3f;fill-rule:evenodd;stroke-width:0.319999;stroke-linecap:round;stroke-linejoin:round;stroke-miterlimit:1.5"
     id="circle6542"
     inkscape:label="circle" /><g
     aria-label="RESET"
     id="text6696"
     style="fill:#ffffff;fill-opacity:0.995708;stroke:#ffffff"
     inkscape:label="reset"><path
       d="m 242.72394,95.528206 h -1.50586 l -2.91797,-3.46875 h -1.63477 v 3.46875 h -1.16015 v -8.72461 h 2.44336 q 0.79101,0 1.31836,0.105469 0.52734,0.09961 0.94922,0.363281 0.4746,0.298829 0.73828,0.75586 0.26953,0.451172 0.26953,1.148437 0,0.94336 -0.47461,1.582032 -0.47461,0.632812 -1.30664,0.955078 z m -2.71289,-6.269531 q 0,-0.375 -0.13477,-0.66211 -0.1289,-0.292969 -0.43359,-0.492187 -0.25196,-0.169922 -0.59766,-0.234375 -0.3457,-0.07031 -0.81445,-0.07031 h -1.36524 v 3.292969 h 1.17188 q 0.55078,0 0.96094,-0.09375 0.41015,-0.09961 0.69726,-0.363281 0.26367,-0.246094 0.38672,-0.5625 0.12891,-0.322266 0.12891,-0.814453 z"
       id="path6698" /><path
       d="m 249.59698,95.528206 h -5.74804 v -8.72461 h 5.74804 v 1.03125 h -4.58789 v 2.390625 h 4.58789 v 1.03125 h -4.58789 v 3.240235 h 4.58789 z"
       id="path6700" /><path
       d="m 257.77667,93.037971 q 0,0.509766 -0.24023,1.007813 -0.23438,0.498047 -0.66211,0.84375 -0.46875,0.375 -1.0957,0.585937 -0.6211,0.210938 -1.5,0.210938 -0.94336,0 -1.69922,-0.175781 -0.75,-0.175782 -1.5293,-0.521485 v -1.453125 h 0.082 q 0.66211,0.550782 1.5293,0.84961 0.86719,0.298828 1.6289,0.298828 1.07813,0 1.67579,-0.404297 0.60351,-0.404297 0.60351,-1.078125 0,-0.580078 -0.28711,-0.855469 -0.28125,-0.27539 -0.86133,-0.427734 -0.43945,-0.117188 -0.95507,-0.19336 -0.50977,-0.07617 -1.08399,-0.193359 -1.16016,-0.246094 -1.72266,-0.837891 -0.55664,-0.597656 -0.55664,-1.552734 0,-1.095703 0.92579,-1.792969 0.92578,-0.703125 2.3496,-0.703125 0.91993,0 1.6875,0.175782 0.76758,0.175781 1.35938,0.433593 v 1.371094 h -0.082 q -0.49805,-0.421875 -1.3125,-0.697266 -0.8086,-0.28125 -1.6582,-0.28125 -0.93165,0 -1.5,0.386719 -0.5625,0.386719 -0.5625,0.996094 0,0.544922 0.28125,0.855469 0.28125,0.310547 0.99023,0.474609 0.375,0.08203 1.06641,0.199219 0.6914,0.117187 1.17187,0.240234 0.97266,0.257813 1.46484,0.779297 0.49219,0.521484 0.49219,1.458984 z"
       id="path6702" /><path
       d="m 265.388,95.528206 h -5.74805 v -8.72461 h 5.74805 v 1.03125 h -4.58789 v 2.390625 h 4.58789 v 1.03125 h -4.58789 v 3.240235 h 4.58789 z"
       id="path6704" /><path
       d="m 273.4505,87.834846 h -3.11719 v 7.69336 h -1.16015 v -7.69336 h -3.11719 v -1.03125 h 7.39453 z"
       id="path6706" /></g></g>
<g
   inkscape:groupmode="layer"
   id="layer1"
   inkscape:label="components"
   style="display:inline"><circle
     cx="63.2006"
     cy="66.576218"
     r="1.8897638"
     style="clip-rule:evenodd;fill:#00ff00;fill-rule:evenodd;stroke-width:0.138525;stroke-linecap:round;stroke-linejoin:round;stroke-miterlimit:1.5"
     id="circle151"
     inkscape:label="clock" /><circle
     style="fill:#0000ff;fill-opacity:1;stroke-width:0.735775"
     id="path1755"
     cx="153.59964"
     cy="243.73929"
     r="1.8897638"
     inkscape:label="cv" /><circle
     style="fill:#ff0000;fill-opacity:0.996078;stroke-width:0.735775"
     id="circle5596"
     cx="153.59964"
     cy="115.21073"
     r="1.8897638"
     inkscape:label="knob1" /><circle
     style="clip-rule:evenodd;fill:#ff0000;fill-opacity:0.996078;fill-rule:evenodd;stroke-width:0.735775;stroke-linecap:round;stroke-linejoin:round;stroke-miterlimit:1.5"
     id="circle6336"
     cx="275.84027"
     cy="204.02393"
     r="1.8897638"
     inkscape:label="knob2" /><circle
     style="fill:#ff0000;fill-opacity:0.996078;stroke-width:0.735775"
     id="circle6328"
     cx="229.14838"
     cy="347.72626"
     r="1.8897638"
     inkscape:label="knob3" /><circle
     style="fill:#ff0000;fill-opacity:0.996078;stroke-width:0.735775"
     id="circle6338"
     cx="78.050545"
     cy="347.72626"
     r="1.8897638"
     inkscape:label="knob4" /><circle
     style="fill:#ff0000;fill-opacity:0.996078;stroke-width:0.735775"
     id="circle6340"
     cx="31.35903"
     cy="204.02393"
     r="1.8897638"
     inkscape:label="knob5" /><circle
     cx="254.47784"
     cy="63.949501"
     r="1.8897638"
     style="clip-rule:evenodd;fill:#00ff00;fill-rule:evenodd;stroke-width:0.138525;stroke-linecap:round;stroke-linejoin:round;stroke-miterlimit:1.5"
     id="circle6544"
     inkscape:label="reset" /><circle
     cx="214.20847"
     cy="398.5184"
     r="1.8897638"
     style="clip-rule:evenodd;fill:#ff0000;fill-rule:evenodd;stroke-width:0.138525;stroke-linecap:round;stroke-linejoin:round;stroke-miterlimit:1.5;fill-opacity:1"
     id="circle6764"
     inkscape:label="prob" /><circle
     cx="95.989532"
     cy="398.5184"
     r="1.8897638"
     style="clip-rule:evenodd;fill:#00ff00;fill-rule:evenodd;stroke-width:0.138525;stroke-linecap:round;stroke-linejoin:round;stroke-miterlimit:1.5"
     id="circle6766"
     inkscape:label="prob_cv" /><circle
     cx="155.48941"
     cy="398.5184"
     r="1.8897638"
     style="clip-rule:evenodd;fill:#ff0000;fill-rule:evenodd;stroke-width:0.138525;stroke-linecap:round;stroke-linejoin:round;stroke-miterlimit:1.5;fill-opacity:1"
     id="circle6768"
     inkscape:label="prob_mod" /><line
     id="line32"
     fill="none"
     stroke="#1f1f1f"
     stroke-width="0.8"
     stroke-linecap="round"
     stroke-linejoin="round"
     x1="135.53284"
     y1="398.5184"
     x2="115.94611"
     y2="398.5184"
     style="stroke:#ffffff;stroke-opacity:1" /><line
     id="line6808"
     fill="none"
     stroke="#1f1f1f"
     stroke-width="0.8"
     stroke-linecap="round"
     stroke-linejoin="round"
     x1="191.91498"
     y1="398.5184"
     x2="172.32825"
     y2="398.5184"
     style="stroke:#ffffff;stroke-opacity:1" /></g></svg>
