<?xml version="1.0" encoding="UTF-8" standalone="no"?>
<svg
   width="81.279999mm"
   height="128.5mm"
   viewBox="0 0 307.19999 485.66929"
   version="1.1"
   xml:space="preserve"
   style="clip-rule:evenodd;fill-rule:evenodd;stroke-linecap:round;stroke-linejoin:round;stroke-miterlimit:1.5"
   id="svg159"
   sodipodi:docname="Pentagram.svg"
   inkscape:version="1.2.2 (b0a84865, 2022-12-01)"
   xmlns:inkscape="http://www.inkscape.org/namespaces/inkscape"
   xmlns:sodipodi="http://sodipodi.sourceforge.net/DTD/sodipodi-0.dtd"
   xmlns="http://www.w3.org/2000/svg"
   xmlns:svg="http://www.w3.org/2000/svg"><defs
   id="defs163">
        </defs><sodipodi:namedview
   id="namedview161"
   pagecolor="#ffffff"
   bordercolor="#000000"
   borderopacity="0.25"
   inkscape:showpageshadow="2"
   inkscape:pageopacity="0.0"
   inkscape:pagecheckerboard="0"
   inkscape:deskcolor="#d1d1d1"
   showgrid="false"
   inkscape:zoom="1.9914536"
   inkscape:cx="131.31112"
   inkscape:cy="245.04713"
   inkscape:window-width="1512"
   inkscape:window-height="916"
   inkscape:window-x="0"
   inkscape:window-y="38"
   inkscape:window-maximized="0"
   inkscape:current-layer="layer1"
   inkscape:document-units="mm" />
    <rect
   id="Artboard1"
   x="0.00069208338"
   y="-3.5527137e-15"
   width="307.19931"
   height="485.66928"
   style="fill:#372929;stroke-width:0.319999"
   inkscape:label="background" />
    <g
   id="g1350"
   inkscape:label="pentagram"
   transform="matrix(1.1445639,0,0,1.1445639,-22.204971,-35.105094)"><g
     id="g1680"
     inkscape:label="helpers"
     style="clip-rule:evenodd;display:none;fill-rule:evenodd;stroke-linecap:round;stroke-linejoin:round;stroke-miterlimit:1.5"
     transform="matrix(0.87369523,0,0,0.87369523,19.400377,30.671152)"><path
       style="fill:#c2c2c2"
       d="M 158.61958,262.01716 140.45715,237.01885"
       id="path1569" /><path
       style="fill:#c2c2c2"
       d="m 148.5797,262.01716 4.96331,-6.83137 13.19913,-18.16694"
       id="path1676"
       sodipodi:nodetypes="ccc" /></g><path
     d="M 153.59965,141.26016 260.40069,218.8555 219.60622,344.40786 H 87.592762 L 46.798614,218.8555 Z"
     style="clip-rule:evenodd;fill-rule:evenodd;stroke-linecap:round;stroke-linejoin:round;stroke-miterlimit:1.5;fill:none;stroke:#ac3f3f;stroke-width:3.40159px"
     id="path133"
     inkscape:label="pentagon" /><path
     d="M 87.593082,344.40882 260.40069,218.85582 H 46.798614 l 172.807606,125.553 -66.00657,-203.14866 z"
     style="clip-rule:evenodd;fill-rule:evenodd;stroke-linecap:round;stroke-linejoin:round;stroke-miterlimit:1.5;fill:none;stroke:#ac3f3f;stroke-width:3.40159px"
     id="path137"
     inkscape:label="star" /><path
     d="m 165.08219,237.75338 7.0963,21.84091 c 0,0 -18.57884,13.49821 -18.57884,13.49821 0,0 -18.57884,-13.49821 -18.57884,-13.49821 0,0 7.09631,-21.84091 7.09631,-21.84091 z"
     style="clip-rule:evenodd;fill-rule:evenodd;stroke-linecap:round;stroke-linejoin:round;stroke-miterlimit:1.5;fill:#ac3f3f;stroke:#ac3f3f;stroke-width:3.40159px"
     id="path139"
     inkscape:label="inner pentagon" /></g><g
   id="g5525"
   inkscape:label="knob"
   transform="translate(-15.748487,29.598738)"
   style="clip-rule:evenodd;fill-rule:evenodd;stroke-linecap:round;stroke-linejoin:round;stroke-miterlimit:1.5"><path
     id="path294"
     fill="none"
     stroke="#1f1f1f"
     stroke-linecap="round"
     stroke-linejoin="round"
     d="m 161.19167,105.12639 c -2.16161,-2.1616 -3.37727,-5.09649 -3.37727,-8.153463 0,-6.32558 5.20515,-11.53074 11.53075,-11.53074 6.3256,0 11.53075,5.20516 11.53075,11.53074 0,3.056973 -1.21567,5.991863 -3.37727,8.153463 l -8.1505,-8.148943"
     style="stroke:#f3f3f3;stroke-opacity:1"
     inkscape:label="dial" /><ellipse
     style="clip-rule:evenodd;fill:none;fill-opacity:0.845494;fill-rule:evenodd;stroke-linecap:round;stroke-linejoin:round;stroke-miterlimit:1.5"
     id="path4115"
     cx="169.34813"
     cy="96.977448"
     rx="12.02777"
     ry="12.00516"
     inkscape:label="border" /></g><g
   id="g5534"
   inkscape:label="knob"
   transform="translate(-137.9891,118.41193)"
   style="clip-rule:evenodd;fill-rule:evenodd;stroke-linecap:round;stroke-linejoin:round;stroke-miterlimit:1.5"><path
     id="path5530"
     fill="none"
     stroke="#1f1f1f"
     stroke-linecap="round"
     stroke-linejoin="round"
     d="m 161.19167,105.12639 c -2.16161,-2.1616 -3.37727,-5.09649 -3.37727,-8.153463 0,-6.32558 5.20515,-11.53074 11.53075,-11.53074 6.3256,0 11.53075,5.20516 11.53075,11.53074 0,3.056973 -1.21567,5.991863 -3.37727,8.153463 l -8.1505,-8.148943"
     style="stroke:#f3f3f3;stroke-opacity:1"
     inkscape:label="dial" /><ellipse
     style="clip-rule:evenodd;fill:none;fill-opacity:0.845494;fill-rule:evenodd;stroke-linecap:round;stroke-linejoin:round;stroke-miterlimit:1.5"
     id="ellipse5532"
     cx="169.34813"
     cy="96.977448"
     rx="12.02777"
     ry="12.00516"
     inkscape:label="border" /></g><g
   id="g5540"
   inkscape:label="knob"
   transform="translate(-91.297586,262.11425)"
   style="clip-rule:evenodd;fill-rule:evenodd;stroke-linecap:round;stroke-linejoin:round;stroke-miterlimit:1.5"><path
     id="path5536"
     fill="none"
     stroke="#1f1f1f"
     stroke-linecap="round"
     stroke-linejoin="round"
     d="m 161.19167,105.12639 c -2.16161,-2.1616 -3.37727,-5.09649 -3.37727,-8.153463 0,-6.32558 5.20515,-11.53074 11.53075,-11.53074 6.3256,0 11.53075,5.20516 11.53075,11.53074 0,3.056973 -1.21567,5.991863 -3.37727,8.153463 l -8.1505,-8.148943"
     style="stroke:#f3f3f3;stroke-opacity:1"
     inkscape:label="dial" /><ellipse
     style="clip-rule:evenodd;fill:none;fill-opacity:0.845494;fill-rule:evenodd;stroke-linecap:round;stroke-linejoin:round;stroke-miterlimit:1.5"
     id="ellipse5538"
     cx="169.34813"
     cy="96.977448"
     rx="12.02777"
     ry="12.00516"
     inkscape:label="border" /></g><g
   id="g5546"
   inkscape:label="knob"
   transform="translate(59.80025,262.11425)"
   style="clip-rule:evenodd;fill-rule:evenodd;stroke-linecap:round;stroke-linejoin:round;stroke-miterlimit:1.5"><path
     id="path5542"
     fill="none"
     stroke="#1f1f1f"
     stroke-linecap="round"
     stroke-linejoin="round"
     d="m 161.19167,105.12639 c -2.16161,-2.1616 -3.37727,-5.09649 -3.37727,-8.153463 0,-6.32558 5.20515,-11.53074 11.53075,-11.53074 6.3256,0 11.53075,5.20516 11.53075,11.53074 0,3.056973 -1.21567,5.991863 -3.37727,8.153463 l -8.1505,-8.148943"
     style="stroke:#f3f3f3;stroke-opacity:1"
     inkscape:label="dial" /><ellipse
     style="clip-rule:evenodd;fill:none;fill-opacity:0.845494;fill-rule:evenodd;stroke-linecap:round;stroke-linejoin:round;stroke-miterlimit:1.5"
     id="ellipse5544"
     cx="169.34813"
     cy="96.977448"
     rx="12.02777"
     ry="12.00516"
     inkscape:label="border" /></g><circle
   cx="40.687653"
   cy="34.229042"
   r="12.712292"
   style="clip-rule:evenodd;fill:#ac3f3f;fill-rule:evenodd;stroke-width:0.319999;stroke-linecap:round;stroke-linejoin:round;stroke-miterlimit:1.5"
   id="circle147"
   inkscape:label="circle" />
<g
   inkscape:groupmode="layer"
   id="layer1"
   inkscape:label="components"><circle
     cx="40.687653"
     cy="34.229042"
     r="1.8897638"
     style="clip-rule:evenodd;fill:#00ff00;fill-rule:evenodd;stroke-width:0.138525;stroke-linecap:round;stroke-linejoin:round;stroke-miterlimit:1.5"
     id="circle151"
     inkscape:label="clock" /><circle
     style="fill:#0000ff;fill-opacity:1;stroke-width:0.735775"
     id="path1755"
     cx="153.59964"
     cy="255.10474"
     r="1.8897638"
     inkscape:label="cv" /><circle
     style="fill:#ff0000;fill-opacity:0.99607843;stroke-width:0.735775"
     id="circle5596"
     cx="153.59964"
     cy="126.57619"
     r="1.8897638"
     inkscape:label="knob1" /><circle
     style="clip-rule:evenodd;fill-rule:evenodd;stroke-linecap:round;stroke-linejoin:round;stroke-miterlimit:1.5;fill:#ff0000;fill-opacity:0.996078;stroke-width:0.735775"
     id="circle6336"
     cx="275.84027"
     cy="215.38937"
     r="1.8897638"
     inkscape:label="knob2" /><circle
     style="fill:#ff0000;fill-opacity:0.996078;stroke-width:0.735775"
     id="circle6328"
     cx="229.14838"
     cy="359.09171"
     r="1.8897638"
     inkscape:label="knob3" /><circle
     style="fill:#ff0000;fill-opacity:0.996078;stroke-width:0.735775"
     id="circle6338"
     cx="78.050545"
     cy="359.09171"
     r="1.8897638"
     inkscape:label="knob4" /><circle
     style="fill:#ff0000;fill-opacity:0.996078;stroke-width:0.735775"
     id="circle6340"
     cx="31.35903"
     cy="215.38937"
     r="1.8897638"
     inkscape:label="knob5" /></g><g
   id="g6334"
   inkscape:label="knob"
   transform="translate(106.49213,118.41193)"
   style="clip-rule:evenodd;fill-rule:evenodd;stroke-linecap:round;stroke-linejoin:round;stroke-miterlimit:1.5"><path
     id="path6330"
     fill="none"
     stroke="#1f1f1f"
     stroke-linecap="round"
     stroke-linejoin="round"
     d="m 161.19167,105.12639 c -2.16161,-2.1616 -3.37727,-5.09649 -3.37727,-8.153463 0,-6.32558 5.20515,-11.53074 11.53075,-11.53074 6.3256,0 11.53075,5.20516 11.53075,11.53074 0,3.056973 -1.21567,5.991863 -3.37727,8.153463 l -8.1505,-8.148943"
     style="stroke:#f3f3f3;stroke-opacity:1"
     inkscape:label="dial" /><ellipse
     style="clip-rule:evenodd;fill:none;fill-opacity:0.845494;fill-rule:evenodd;stroke-linecap:round;stroke-linejoin:round;stroke-miterlimit:1.5"
     id="ellipse6332"
     cx="169.34813"
     cy="96.977448"
     rx="12.02777"
     ry="12.00516"
     inkscape:label="border" /></g></svg>
